PathFileType	4	(X/Y/Z)	6_coords_data.trc
DataRate	CameraRate	NumFrames	NumMarkers	Units	OrigDataRate	OrigDataStartFrame	OrigNumFrames
30.0	30.0	6	21	m	30.0	1	75
Frame#	Time	THUMB_TIP	THUMB_IP	THUMB_MCP	THUMB_CMC	INDEX_TIP	INDEX_DIP	INDEX_PIP	INDEX_MCP	MIDDLE_TIP	MIDDLE_DIP	MIDDLE_PIP	MIDDLE_MCP	RING_TIP	RING_DIP	RING_PIP	RING_MCP	PINKY_TIP	PINKY_DIP	PINKY_PIP	PINKY_MCP	WRIST
X1	Y1	Z1	X2	Y2	Z2	X3	Y3	Z3	X4	Y4	Z4	X5	Y5	Z5	X6	Y6	Z6	X7	Y7	Z7	X8	Y8	Z8	X9	Y9	Z9	X10	Y10	Z10	X11	Y11	Z11	X12	Y12	Z12	X13	Y13	Z13	X14	Y14	Z14	X15	Y15	Z15	X16	Y16	Z16	X17	Y17	Z17	X18	Y18	Z18	X19	Y19	Z19	X20	Y20	Z20	X21	Y21	Z21
0	0.0	-0.01521269989013672	-0.13272000122070313	1.0154400024414063	-0.00388548994064331	-0.10742500305175781	1.0235	-0.004936079978942871	-0.0801666030883789	1.0378299560546875	-0.007337940216064453	-0.04158050155639648	1.0491600341796874	0.005278150081634522	-0.046957099914550784	1.01702001953125	0.021911300659179688	-0.04585070037841797	1.01225	0.028966299057006838	-0.050131301879882816	0.9884149780273438	-0.01205519962310791	-0.055297401428222655	0.9887520141601562	0.00958057975769043	-0.033663299560546874	1.028949951171875	0.020506999969482423	-0.02892460060119629	1.0158599853515624	0.027620100021362306	-0.02829680061340332	0.9866929931640624	-0.016498899459838866	-0.03079829978942871	0.9830139770507812	0.015417499542236328	-0.020911100387573243	1.0131400146484375	0.018296899795532225	-0.01253600025177002	1.01697998046875	0.025970300674438476	-0.007026690006256103	0.99218701171875	-0.016455299377441408	-0.0061441798210144045	0.986010986328125	0.000787425994873046	0.002755539894104004	1.0243499755859375	0.017896400451660157	0.00410899019241333	1.0158699951171875	0.022039100646972655	0.009998539924621581	0.995833984375	-0.01184060001373291	0.014718000411987304	0.9967410278320312	-0.023871200561523438	-0.010785099983215331	1.0666700439453125
1	0.03333333333333333	-0.015119999885559081	-0.13285499572753906	1.016280029296875	-0.004103240013122559	-0.10688600158691407	1.0226400146484376	-0.005540329933166504	-0.07974739837646484	1.0388299560546874	-0.006019139766693115	-0.040791801452636715	1.0505899658203126	0.0036433498859405507	-0.047569599151611325	1.0204400024414062	0.021464000701904296	-0.04597010040283203	1.0125599975585937	0.028231599807739257	-0.04989630126953125	0.9885289916992187	-0.012952699661254882	-0.05505630111694336	0.9899970092773438	0.01005270004272461	-0.03204100036621094	1.0244599609375	0.019598800659179686	-0.028692899703979494	1.0164600219726563	0.027411699295043945	-0.028254100799560547	0.9877979736328125	-0.017247100830078126	-0.030787300109863282	0.9831530151367187	0.004288290023803711	-0.014999199867248535	1.0266600341796874	0.016695100784301756	-0.011375200271606446	1.0183599853515626	0.026575199127197267	-0.007827459812164306	0.9927670288085938	-0.015707500457763673	-0.006003749847412109	0.9867119750976563	0.00180646002292633	0.0023936200141906738	1.0246800537109375	0.016577699661254882	0.004556789875030518	1.0171500244140625	0.02051110076904297	0.009980299949645995	0.9986849975585937	-0.01105799961090088	0.01459630012512207	0.9960040283203125	-0.025362199783325195	-0.011445799827575683	1.0677099609375
2	0.06666666666666667	-0.015053000450134277	-0.13279600524902344	1.0164000244140625	-0.004071090221405029	-0.10672499847412109	1.0228800048828126	-0.005463640213012696	-0.07949549865722656	1.039	-0.006020259857177734	-0.040787101745605465	1.05068994140625	0.00400163984298706	-0.04751649856567383	1.0206300048828125	0.02153420066833496	-0.04591659927368164	1.0126900024414063	0.028363899230957033	-0.04977930068969726	0.9887780151367187	-0.012792900085449218	-0.05496540069580078	0.9899760131835937	0.010087800025939942	-0.03199519920349121	1.0245799560546875	0.019547800064086913	-0.028682199478149414	1.01652001953125	0.027565099716186522	-0.028128999710083008	0.9882030029296875	-0.017183799743652344	-0.030706399917602538	0.9832219848632813	0.004298460006713867	-0.014953200340270995	1.0263399658203125	0.016671199798583985	-0.011366800308227539	1.0180499877929687	0.02663509941101074	-0.00775747013092041	0.9928480224609375	-0.015614800453186035	-0.005942599773406982	0.9867689819335937	0.001948860049247741	0.0024301400184631337	1.0251400146484375	0.01651580047607422	0.0046326699256896975	1.0174600219726562	0.020598499298095704	0.010039400100708008	0.998447021484375	-0.01098900032043457	0.01466059970855713	0.9960800170898437	-0.025386499404907226	-0.01133180046081543	1.0676700439453124
3	0.1	-0.01494540023803711	-0.13283299255371095	1.0165800170898438	-0.003998399972915649	-0.10673500061035156	1.0230999755859376	-0.005445980072021485	-0.0796344985961914	1.0391400146484375	-0.005936940193176269	-0.04079850006103516	1.0508399658203125	0.0037422699928283693	-0.04746699905395508	1.020969970703125	0.0215216007232666	-0.04586740112304687	1.0128699951171876	0.02816469955444336	-0.04987170028686523	0.9885700073242187	-0.012850099563598633	-0.05496129989624023	0.9900910034179687	0.010168499946594238	-0.031808700561523434	1.0244599609375	0.019458200454711912	-0.028632999420166016	1.01675	0.02750860023498535	-0.028197799682617188	0.9881710205078125	-0.01717530059814453	-0.030761499404907227	0.983281005859375	0.004554800033569336	-0.01498740005493164	1.02625	0.016642200469970704	-0.011312600135803222	1.0186500244140626	0.026628000259399414	-0.007757420063018799	0.9929429931640625	-0.0157362003326416	-0.0059464797973632815	0.9869630126953125	0.001834540009498596	0.0024622800350189208	1.0248599853515625	0.016507400512695312	0.004629539966583252	1.01747998046875	0.020479999542236327	0.01000790023803711	0.998552978515625	-0.011088299751281738	0.014635899543762206	0.996156005859375	-0.025347799301147462	-0.011378299713134766	1.0676099853515626
4	0.13333333333333333	-0.015031700134277343	-0.1328780059814453	1.0165700073242188	-0.004107510089874268	-0.10683300018310547	1.0230700073242187	-0.005550950050354004	-0.07972630310058594	1.0391199951171874	-0.005983250141143799	-0.0408577995300293	1.0508299560546874	0.003874269962310791	-0.047555301666259764	1.021219970703125	0.021358400344848632	-0.045977001190185544	1.0128900146484374	0.028097200393676757	-0.04995389938354492	0.988635009765625	-0.012982600212097168	-0.05505239868164063	0.9902329711914063	0.010216899871826172	-0.03200299835205078	1.02452001953125	0.019475000381469727	-0.02871739959716797	1.0167899780273437	0.027503000259399415	-0.028221399307250976	0.9883280029296875	-0.017216499328613282	-0.030824100494384766	0.9833159790039062	0.004598700046539307	-0.015035599708557128	1.026199951171875	0.016622499465942384	-0.011442000389099122	1.018280029296875	0.026631599426269532	-0.007860610008239746	0.99306298828125	-0.015776700019836425	-0.006024680137634277	0.9870009765625	0.001796800017356872	0.0023668398857116697	1.0247900390625	0.016488700866699218	0.004543839931488037	1.0175499877929688	0.02053860092163086	0.009939029693603515	0.9986859741210937	-0.011104700088500976	0.01456529998779297	0.9961190185546875	-0.025336999893188477	-0.011419500350952148	1.0678499755859374
5	0.16666666666666666	-0.014942899703979492	-0.13293600463867186	1.0166599731445312	-0.00402947998046875	-0.10698100280761719	1.023030029296875	-0.005526289939880371	-0.07977999877929688	1.03918994140625	-0.006045720100402832	-0.04092290115356445	1.050969970703125	0.0038579199314117433	-0.047556999206542966	1.0211799926757812	0.021521099090576173	-0.046007198333740236	1.012989990234375	0.028259899139404295	-0.04990750122070312	0.9888670043945312	-0.012887200355529786	-0.0551255989074707	0.9903140258789063	0.010050299644470215	-0.03205519866943359	1.02472998046875	0.019341299057006836	-0.028781299591064454	1.0168099975585938	0.0276427001953125	-0.02825510025024414	0.9885460205078125	-0.017135700225830077	-0.030864700317382813	0.9834089965820313	0.004401259899139405	-0.014975000381469726	1.027	0.016610700607299803	-0.011437999725341796	1.0188300170898437	0.026694099426269532	-0.00787017011642456	0.9935020141601563	-0.015607799530029297	-0.006114389896392822	0.9870349731445313	0.001860910058021545	0.002332410097122192	1.0253699951171875	0.016588300704956056	0.00447553014755249	1.0174299926757813	0.02056450080871582	0.009854120254516601	0.9990059814453125	-0.011007399559020995	0.014513400077819824	0.99631298828125	-0.025462799072265625	-0.011496600151062011	1.06797998046875
